<svg width="442" height="566" viewBox="0 0 442 566" fill="none" xmlns="http://www.w3.org/2000/svg">
<path d="M0.160156 501.156C0.160156 518.829 14.487 533.156 32.1602 533.156H398.16C415.833 533.156 430.16 518.829 430.16 501.156V0.0900879H0.160156V501.156Z" fill="white"/>
<path d="M424.32 366.876C393.556 355.651 347.983 349.678 288.7 370.593C229.548 391.462 196.111 399.508 161.48 402.144C126.815 404.783 90.9676 402.006 26.915 401.199C21.3747 401.129 16.0732 401.166 11 401.295V429.795H441.32V374.232C436.28 371.684 430.61 369.171 424.32 366.876Z" fill="#FFFDEB"/>
<path d="M409.32 388.332C426.993 388.332 441.32 402.659 441.32 420.332V501.156C441.32 518.829 426.993 533.156 409.32 533.156H380.091L349.99 563.866C348.03 565.866 344.809 565.866 342.849 563.866L312.748 533.156H43.6797C26.0066 533.156 11.6797 518.829 11.6797 501.156V420.332C11.6798 402.659 26.0066 388.332 43.6797 388.332H409.32Z" fill="#FFF9D6"/>
<path d="M28.4873 343.564C59.229 332.34 104.768 326.368 164.007 347.283C223.114 368.152 256.526 376.196 291.131 378.833C325.771 381.472 361.591 378.694 425.596 377.888C431.067 377.819 436.305 377.853 441.32 377.978V406.483H11.5V350.921C16.5366 348.373 22.2022 345.859 28.4873 343.564Z" fill="#FFFDEB"/>
<ellipse cx="388.24" cy="393.262" rx="28.4103" ry="24.9607" fill="#FFF9D6"/>
<path d="M28.1998 396.803C30.012 393.011 35.4101 393.011 37.2223 396.803L42.9712 408.832C44.5572 412.151 42.138 415.988 38.46 415.988H26.9622C23.2841 415.988 20.8649 412.151 22.4509 408.832L28.1998 396.803Z" fill="#FFF9D6"/>
<path d="M39.415 385.099C41.4218 378.47 50.8077 378.47 52.8145 385.099L57.4039 400.259C58.7646 404.754 55.4005 409.287 50.7041 409.287H41.5254C36.829 409.287 33.4649 404.754 34.8257 400.259L39.415 385.099Z" fill="#FFF9D6"/>
<path d="M60.7326 363.346C62.9983 355.716 73.805 355.716 76.0707 363.346L86.2124 397.501C87.7351 402.629 83.8928 407.778 78.5433 407.778H58.2601C52.9106 407.778 49.0683 402.629 50.591 397.501L60.7326 363.346Z" fill="#FFF9D6"/>
<path d="M84.7688 388.862C86.685 383.599 94.1285 383.599 96.0447 388.862L101.497 403.837C102.922 407.75 100.024 411.89 95.8591 411.89H84.9544C80.7896 411.89 77.8916 407.75 79.3165 403.837L84.7688 388.862Z" fill="#FFF9D6"/>
</svg>
