<svg width="79" height="53" viewBox="0 0 79 53" fill="none" xmlns="http://www.w3.org/2000/svg">
<path d="M23.7041 0.940674C24.0512 0.940631 24.3951 0.993279 24.7158 1.09595C25.0365 1.19862 25.3278 1.34956 25.5732 1.53931C25.8187 1.72908 26.0137 1.95444 26.1465 2.20239C26.2792 2.45029 26.3477 2.71631 26.3477 2.98462V49.9856C26.3477 50.5276 26.069 51.0477 25.5732 51.4309C25.0775 51.814 24.4051 52.0295 23.7041 52.0295C23.0031 52.0295 22.3307 51.8141 21.835 51.4309C21.3392 51.0477 21.0605 50.5276 21.0605 49.9856V2.98462C21.0605 2.71633 21.129 2.45028 21.2617 2.20239C21.3945 1.95444 21.5895 1.72907 21.835 1.53931C22.0804 1.34954 22.3717 1.19863 22.6924 1.09595C23.0131 0.99327 23.357 0.940637 23.7041 0.940674ZM13.1738 10.1575C13.521 10.1574 13.8648 10.2096 14.1855 10.3118C14.5063 10.414 14.7975 10.5643 15.043 10.7532C15.2883 10.942 15.4834 11.1657 15.6162 11.4124C15.749 11.6591 15.8174 11.9245 15.8174 12.1917V40.7795C15.8174 41.319 15.5387 41.8366 15.043 42.218C14.5472 42.5994 13.8749 42.8137 13.1738 42.8137C12.4727 42.8137 11.8004 42.5995 11.3047 42.218C10.8089 41.8366 10.5303 41.319 10.5303 40.7795V12.1917C10.5302 11.9245 10.5986 11.6591 10.7314 11.4124C10.8643 11.1657 11.0593 10.942 11.3047 10.7532C11.5502 10.5643 11.8414 10.414 12.1621 10.3118C12.4828 10.2096 12.8267 10.1574 13.1738 10.1575ZM34.2344 10.1575C34.5814 10.1574 34.9254 10.2096 35.2461 10.3118C35.5668 10.4139 35.8581 10.5644 36.1035 10.7532C36.3488 10.9419 36.5439 11.1657 36.6768 11.4124C36.8096 11.6591 36.878 11.9245 36.8779 12.1917V40.7795C36.8779 41.319 36.5993 41.8366 36.1035 42.218C35.6078 42.5994 34.9354 42.8137 34.2344 42.8137C33.5334 42.8137 32.8609 42.5994 32.3652 42.218C31.8696 41.8366 31.5908 41.3189 31.5908 40.7795V12.1917C31.5908 11.9245 31.6592 11.6591 31.792 11.4124C31.9248 11.1657 32.1199 10.942 32.3652 10.7532C32.6107 10.5643 32.902 10.414 33.2227 10.3118C33.5433 10.2096 33.8873 10.1575 34.2344 10.1575ZM55.2949 10.1575C55.6419 10.1574 55.986 10.2096 56.3066 10.3118C56.6274 10.414 56.9196 10.5643 57.165 10.7532C57.4102 10.9419 57.6046 11.1659 57.7373 11.4124C57.8701 11.6591 57.9385 11.9245 57.9385 12.1917V40.7795C57.9385 41.319 57.6598 41.8366 57.1641 42.218C56.6683 42.5993 55.9959 42.8137 55.2949 42.8137C54.594 42.8136 53.9214 42.5994 53.4258 42.218C52.9302 41.8366 52.6523 41.3189 52.6523 40.7795V12.1917C52.6523 11.9245 52.7197 11.6591 52.8525 11.4124C52.9853 11.1657 53.1805 10.942 53.4258 10.7532C53.6712 10.5644 53.9626 10.414 54.2832 10.3118C54.6038 10.2096 54.9479 10.1575 55.2949 10.1575ZM2.64355 17.97C2.99068 17.9699 3.33456 18.0233 3.65527 18.1252C3.97586 18.2272 4.26731 18.3763 4.5127 18.5647C4.75817 18.7532 4.95311 18.9776 5.08594 19.2239C5.21861 19.47 5.28715 19.7338 5.28711 20.0002V32.97C5.28709 33.2364 5.21863 33.5002 5.08594 33.7463C4.95309 33.9926 4.75816 34.217 4.5127 34.4055C4.26732 34.5939 3.97584 34.743 3.65527 34.845C3.33458 34.947 2.99067 35.0002 2.64355 35.0002C2.29641 35.0002 1.95256 34.947 1.63184 34.845C1.31126 34.743 1.01981 34.5939 0.774414 34.4055C0.528946 34.217 0.334018 33.9926 0.201172 33.7463C0.06845 33.5002 1.86377e-05 33.2364 0 32.97V20.0002C-4.13488e-05 19.7338 0.0684696 19.4701 0.201172 19.2239C0.333999 18.9776 0.528935 18.7532 0.774414 18.5647C1.01982 18.3763 1.31123 18.2272 1.63184 18.1252C1.95258 18.0232 2.29639 17.9699 2.64355 17.97ZM44.7646 17.97C45.1118 17.9699 45.4556 18.0233 45.7764 18.1252C46.097 18.2272 46.3884 18.3763 46.6338 18.5647C46.8793 18.7532 47.0742 18.9776 47.207 19.2239C47.3398 19.4701 47.4082 19.7338 47.4082 20.0002V32.97C47.4082 33.5083 47.1295 34.0248 46.6338 34.4055C46.1381 34.7861 45.4656 35.0002 44.7646 35.0002C44.0637 35.0002 43.3912 34.7862 42.8955 34.4055C42.3998 34.0248 42.1211 33.5083 42.1211 32.97V20.0002C42.1211 19.7338 42.1896 19.47 42.3223 19.2239C42.4551 18.9776 42.65 18.7532 42.8955 18.5647C43.1409 18.3763 43.4324 18.2272 43.7529 18.1252C44.0736 18.0233 44.4176 17.97 44.7646 17.97ZM65.8252 17.97C66.1723 17.9699 66.5162 18.0233 66.8369 18.1252C67.1577 18.2272 67.4498 18.3762 67.6953 18.5647C67.9407 18.7532 68.1348 18.9776 68.2676 19.2239C68.4003 19.4701 68.4688 19.7337 68.4688 20.0002V32.97C68.4687 33.5083 68.19 34.0248 67.6943 34.4055C67.1986 34.786 66.5261 35.0002 65.8252 35.0002C65.1243 35.0002 64.4517 34.7861 63.9561 34.4055C63.4604 34.0249 63.1827 33.5083 63.1826 32.97V20.0002C63.1826 19.7339 63.2502 19.47 63.3828 19.2239C63.5156 18.9776 63.7106 18.7532 63.9561 18.5647C64.2014 18.3763 64.4929 18.2272 64.8135 18.1252C65.1341 18.0233 65.4782 17.97 65.8252 17.97ZM76.9961 24.3821C78.1025 24.3821 78.9999 25.2786 79 26.385C79 27.4915 78.1026 28.3889 76.9961 28.3889H75.7158C74.6095 28.3888 73.7129 27.4914 73.7129 26.385C73.713 25.2787 74.6095 24.3822 75.7158 24.3821H76.9961Z" fill="#FFB904"/>
</svg>
