<svg width="79" height="56" viewBox="0 0 79 56" fill="none" xmlns="http://www.w3.org/2000/svg">
<path d="M23.8823 0.985107C24.1933 0.985112 24.5013 1.04171 24.7886 1.1521C25.0761 1.26264 25.338 1.42534 25.5581 1.62964C25.7781 1.83389 25.9527 2.07667 26.0718 2.34351C26.1908 2.61034 26.2515 2.89651 26.2515 3.1853V53.7859C26.2513 54.3692 26.0025 54.9291 25.5581 55.3416C25.1137 55.754 24.5107 55.985 23.8823 55.9851C23.254 55.9851 22.651 55.7539 22.2065 55.3416C21.7622 54.9291 21.5123 54.3692 21.5122 53.7859V3.1853C21.5122 2.89653 21.5729 2.61033 21.6919 2.34351C21.8109 2.0767 21.9856 1.83387 22.2056 1.62964C22.4257 1.42534 22.6875 1.26264 22.9751 1.1521C23.2626 1.04163 23.5712 0.985062 23.8823 0.985107ZM13.4692 10.908C13.7804 10.9079 14.089 10.964 14.3765 11.074C14.664 11.184 14.9259 11.3452 15.146 11.5486C15.366 11.7519 15.5406 11.9939 15.6597 12.2595C15.7786 12.5251 15.8394 12.81 15.8394 13.0974V43.8748C15.8394 44.4555 15.5904 45.0129 15.146 45.4236C14.7015 45.8342 14.0978 46.0642 13.4692 46.0642C12.8408 46.0641 12.2378 45.8341 11.7935 45.4236C11.349 45.0129 11.1001 44.4555 11.1001 43.8748V13.0974C11.1 12.81 11.1608 12.5251 11.2798 12.2595C11.3989 11.9939 11.5734 11.7519 11.7935 11.5486C12.0135 11.3452 12.2754 11.184 12.563 11.074C12.8503 10.9641 13.1583 10.908 13.4692 10.908ZM34.2944 10.908C34.6054 10.908 34.9133 10.9641 35.2007 11.074C35.4882 11.184 35.7501 11.3452 35.9702 11.5486C36.1903 11.7519 36.3648 11.9938 36.4839 12.2595C36.6029 12.5251 36.6646 12.81 36.6646 13.0974V43.8748C36.6646 44.4555 36.4147 45.0129 35.9702 45.4236C35.5258 45.8341 34.9229 46.0641 34.2944 46.0642C33.666 46.0642 33.0631 45.834 32.6187 45.4236C32.1742 45.0129 31.9243 44.4555 31.9243 43.8748V13.0974C31.9243 12.81 31.985 12.5251 32.104 12.2595C32.2231 11.9939 32.3977 11.7519 32.6177 11.5486C32.8378 11.3452 33.0996 11.184 33.3872 11.074C33.6747 10.964 33.9832 10.9079 34.2944 10.908ZM55.1187 10.908C55.4299 10.9079 55.7383 10.964 56.0259 11.074C56.3133 11.184 56.5744 11.3454 56.7944 11.5486C57.0145 11.7519 57.189 11.9938 57.3081 12.2595C57.4271 12.5251 57.4888 12.8099 57.4888 13.0974V43.8748C57.4888 44.4555 57.2389 45.0129 56.7944 45.4236C56.35 45.8341 55.7471 46.0642 55.1187 46.0642C54.4902 46.0642 53.8873 45.8341 53.4429 45.4236C52.9984 45.0129 52.7485 44.4555 52.7485 43.8748V13.0974C52.7485 12.8099 52.8102 12.5252 52.9292 12.2595C53.0483 11.9938 53.2228 11.7519 53.4429 11.5486C53.6629 11.3454 53.924 11.184 54.2114 11.074C54.499 10.9639 54.8074 10.9079 55.1187 10.908ZM3.05713 19.3191C3.36835 19.319 3.67682 19.3753 3.96436 19.4851C4.25192 19.5949 4.5138 19.7558 4.73389 19.9587C4.95385 20.1616 5.12852 20.4027 5.24756 20.6677C5.36655 20.9327 5.42723 21.2169 5.42725 21.5037V35.4666C5.42725 35.7535 5.36666 36.0383 5.24756 36.3035C5.12846 36.5686 4.95294 36.8096 4.73291 37.0125C4.51292 37.2152 4.25172 37.3763 3.96436 37.4861C3.67686 37.5959 3.3683 37.6521 3.05713 37.6521C2.74616 37.6521 2.4382 37.5958 2.15088 37.4861C1.86335 37.3763 1.60142 37.2154 1.38135 37.0125C1.16134 36.8096 0.986777 36.5685 0.867676 36.3035C0.748572 36.0383 0.687012 35.7535 0.687012 35.4666V21.5037C0.687028 21.2168 0.748659 20.9327 0.867676 20.6677C0.986741 20.4026 1.16132 20.1617 1.38135 19.9587C1.60143 19.7558 1.86331 19.5949 2.15088 19.4851C2.43824 19.3754 2.74612 19.3191 3.05713 19.3191ZM44.7065 19.3191C45.0177 19.3191 45.3263 19.3753 45.6138 19.4851C45.9012 19.5949 46.1623 19.7559 46.3823 19.9587C46.6024 20.1617 46.7769 20.4026 46.896 20.6677C47.0151 20.9329 47.0767 21.2176 47.0767 21.5046V35.4666C47.0767 36.0462 46.8268 36.6026 46.3823 37.0125C45.9379 37.4222 45.335 37.652 44.7065 37.6521C44.0781 37.6521 43.4752 37.4221 43.0308 37.0125C42.5863 36.6026 42.3364 36.0462 42.3364 35.4666V21.5046C42.3364 21.2176 42.398 20.9329 42.5171 20.6677C42.6362 20.4026 42.8107 20.1616 43.0308 19.9587C43.2508 19.7559 43.5119 19.5949 43.7993 19.4851C44.0869 19.3753 44.3953 19.319 44.7065 19.3191ZM65.5308 19.3191C65.842 19.319 66.1504 19.3753 66.438 19.4851C66.7254 19.5949 66.9865 19.7559 67.2065 19.9587C67.4266 20.1616 67.6011 20.4026 67.7202 20.6677C67.8393 20.9329 67.9009 21.2176 67.9009 21.5046V35.4666C67.9009 36.0462 67.651 36.6026 67.2065 37.0125C66.7621 37.4222 66.1592 37.6521 65.5308 37.6521C64.9023 37.6521 64.2994 37.4222 63.855 37.0125C63.4105 36.6026 63.1606 36.0462 63.1606 35.4666V21.5046C63.1606 21.2176 63.2222 20.9329 63.3413 20.6677C63.4604 20.4026 63.6349 20.1616 63.855 19.9587C64.075 19.7559 64.3361 19.5949 64.6235 19.4851C64.9111 19.3753 65.2195 19.319 65.5308 19.3191ZM76.1558 26.2214C77.3469 26.2214 78.3129 27.1866 78.313 28.3777C78.313 29.5689 77.347 30.5349 76.1558 30.5349H75.73C74.5388 30.5349 73.5728 29.5689 73.5728 28.3777C73.5729 27.1866 74.5388 26.2214 75.73 26.2214H76.1558Z" fill="#FFB904"/>
</svg>
