<svg width="79" height="39" viewBox="0 0 79 39" fill="none" xmlns="http://www.w3.org/2000/svg">
<path d="M23.9023 0.100342C24.2451 0.100328 24.5847 0.140602 24.9014 0.218506C25.218 0.296423 25.5057 0.410484 25.748 0.554443C25.9903 0.698356 26.1823 0.869359 26.3135 1.05737C26.4446 1.24554 26.5127 1.44746 26.5127 1.65112V37.3191C26.5126 37.7303 26.2375 38.125 25.748 38.4158C25.2586 38.7065 24.5945 38.8698 23.9023 38.8699C23.2102 38.8699 22.5461 38.7064 22.0566 38.4158C21.5672 38.125 21.2921 37.7303 21.292 37.3191V1.65112C21.2919 1.44746 21.3591 1.24554 21.4902 1.05737C21.6213 0.869354 21.8135 0.698373 22.0557 0.554443C22.2981 0.410434 22.5866 0.296428 22.9033 0.218506C23.22 0.140615 23.5596 0.10031 23.9023 0.100342ZM13.5029 7.09448C13.8456 7.09445 14.1854 7.13419 14.502 7.21167C14.8187 7.28923 15.1072 7.4033 15.3496 7.54663C15.5919 7.68993 15.7839 7.86039 15.915 8.04761C16.0461 8.23485 16.1143 8.43578 16.1143 8.63843V30.3328C16.1143 30.7421 15.839 31.1351 15.3496 31.4246C14.8601 31.714 14.1953 31.8767 13.5029 31.8767C12.8108 31.8766 12.1467 31.714 11.6572 31.4246C11.1678 31.1351 10.8926 30.7421 10.8926 30.3328V8.63843C10.8925 8.43576 10.9607 8.23486 11.0918 8.04761C11.2229 7.86037 11.4149 7.68994 11.6572 7.54663C11.8995 7.40335 12.1873 7.28922 12.5039 7.21167C12.8205 7.13415 13.1603 7.09448 13.5029 7.09448ZM34.3008 7.09448C34.6436 7.09445 34.9831 7.13413 35.2998 7.21167C35.6165 7.28921 35.9041 7.40335 36.1465 7.54663C36.3889 7.68996 36.5817 7.86033 36.7129 8.04761C36.8439 8.2348 36.9112 8.43584 36.9111 8.63843V30.3328C36.9111 30.7421 36.636 31.1351 36.1465 31.4246C35.657 31.7139 34.993 31.8767 34.3008 31.8767C33.6085 31.8767 32.9446 31.714 32.4551 31.4246C31.9655 31.1351 31.6904 30.7421 31.6904 30.3328V8.63843C31.6904 8.43586 31.7577 8.23478 31.8887 8.04761C32.0198 7.86033 32.2127 7.68996 32.4551 7.54663C32.6975 7.40332 32.9851 7.28922 33.3018 7.21167C33.6185 7.13412 33.958 7.09446 34.3008 7.09448ZM55.0986 7.09448C55.4414 7.09447 55.781 7.13414 56.0977 7.21167C56.4143 7.28923 56.702 7.40333 56.9443 7.54663C57.1867 7.68995 57.3786 7.86035 57.5098 8.04761C57.6409 8.23488 57.709 8.43573 57.709 8.63843V30.3328C57.709 30.7421 57.4339 31.1351 56.9443 31.4246C56.4549 31.714 55.7909 31.8767 55.0986 31.8767C54.4065 31.8767 53.7424 31.7139 53.2529 31.4246C52.7634 31.1351 52.4883 30.7421 52.4883 30.3328V8.63843C52.4882 8.4358 52.5555 8.23483 52.6865 8.04761C52.8176 7.86042 53.0097 7.68992 53.252 7.54663C53.4944 7.4033 53.7829 7.28923 54.0996 7.21167C54.4162 7.13417 54.7559 7.09445 55.0986 7.09448ZM3.10449 13.0232C3.44722 13.0232 3.78686 13.063 4.10352 13.1404C4.42005 13.2177 4.70788 13.3314 4.9502 13.4744C5.1926 13.6174 5.38544 13.7875 5.5166 13.9744C5.64777 14.1613 5.7149 14.3619 5.71484 14.5642V24.406C5.71484 24.6083 5.64779 24.809 5.5166 24.9958C5.38542 25.1827 5.19259 25.3528 4.9502 25.4958C4.70788 25.6388 4.42004 25.7525 4.10352 25.8298C3.78687 25.9072 3.44721 25.947 3.10449 25.947C2.76175 25.947 2.42212 25.9072 2.10547 25.8298C1.78887 25.7524 1.50113 25.6388 1.25879 25.4958C1.01652 25.3529 0.82454 25.1826 0.693359 24.9958C0.562173 24.809 0.494141 24.6083 0.494141 24.406V14.5642C0.494086 14.362 0.561287 14.1612 0.692383 13.9744C0.823549 13.7875 1.01638 13.6174 1.25879 13.4744C1.50114 13.3314 1.78885 13.2178 2.10547 13.1404C2.42215 13.063 2.76174 13.0232 3.10449 13.0232ZM44.6992 13.0232C45.0419 13.0232 45.3816 13.0631 45.6982 13.1404C46.015 13.2178 46.3035 13.3313 46.5459 13.4744C46.7882 13.6174 46.9802 13.7875 47.1113 13.9744C47.2425 14.1613 47.3106 14.3619 47.3105 14.5642V24.406C47.3105 24.8145 47.0354 25.207 46.5459 25.4958C46.0564 25.7847 45.3915 25.947 44.6992 25.947C44.007 25.947 43.343 25.7847 42.8535 25.4958C42.364 25.207 42.0889 24.8146 42.0889 24.406V14.5642C42.0888 14.3619 42.1569 14.1613 42.2881 13.9744C42.4193 13.7875 42.6112 13.6174 42.8535 13.4744C43.0958 13.3314 43.3836 13.2178 43.7002 13.1404C44.0168 13.063 44.3565 13.0232 44.6992 13.0232ZM65.4971 13.0232C65.8399 13.0232 66.1794 13.063 66.4961 13.1404C66.8127 13.2178 67.1004 13.3314 67.3428 13.4744C67.5852 13.6174 67.778 13.7875 67.9092 13.9744C68.0403 14.1613 68.1075 14.3619 68.1074 14.5642V24.406C68.1074 24.8146 67.8323 25.207 67.3428 25.4958C66.8533 25.7846 66.1893 25.947 65.4971 25.947C64.8049 25.947 64.1409 25.7846 63.6514 25.4958C63.1618 25.207 62.8867 24.8146 62.8867 24.406V14.5642C62.8867 14.3619 62.9538 14.1613 63.085 13.9744C63.2161 13.7875 63.409 13.6174 63.6514 13.4744C63.8937 13.3314 64.1815 13.2177 64.498 13.1404C64.8147 13.063 65.1543 13.0232 65.4971 13.0232ZM76.9863 17.8884C77.8257 17.8887 78.5057 18.5696 78.5059 19.4089C78.5059 20.2485 77.8258 20.9292 76.9863 20.9294H74.8057C73.966 20.9294 73.2852 20.2486 73.2852 19.4089C73.2853 18.5694 73.9661 17.8885 74.8057 17.8884H76.9863Z" fill="#FFB904"/>
</svg>
