<svg width="79" height="71" viewBox="0 0 79 71" fill="none" xmlns="http://www.w3.org/2000/svg">
<path d="M23.8711 0.485107C24.2227 0.485049 24.5716 0.557306 24.8965 0.697998C25.2213 0.838688 25.5161 1.04546 25.7646 1.30542C26.0132 1.5654 26.2102 1.87395 26.3447 2.21362C26.4792 2.5533 26.5489 2.91726 26.5488 3.28491V67.6843C26.5488 68.4269 26.2668 69.1397 25.7646 69.6648C25.2626 70.1898 24.5811 70.4851 23.8711 70.4851C23.1612 70.485 22.4805 70.1897 21.9785 69.6648C21.4764 69.1397 21.1943 68.4269 21.1943 67.6843V3.28491C21.1943 2.91734 21.263 2.55324 21.3975 2.21362C21.532 1.87391 21.7299 1.56543 21.9785 1.30542C22.2271 1.04544 22.5219 0.838689 22.8467 0.697998C23.1714 0.557366 23.5196 0.485111 23.8711 0.485107ZM13.4531 13.113C13.8046 13.113 14.1528 13.186 14.4775 13.3259C14.8022 13.4659 15.0972 13.6708 15.3457 13.9294C15.5943 14.1882 15.7922 14.4956 15.9268 14.8337C16.0612 15.1718 16.1299 15.5343 16.1299 15.9001V55.071C16.1299 55.8101 15.8477 56.5191 15.3457 57.0417C14.8437 57.5643 14.163 57.858 13.4531 57.8582C12.743 57.8582 12.0617 57.5644 11.5596 57.0417C11.0576 56.5191 10.7754 55.8101 10.7754 55.071V15.9001C10.7754 15.5342 10.845 15.1718 10.9795 14.8337C11.114 14.4957 11.311 14.1882 11.5596 13.9294C11.8081 13.6708 12.1031 13.4659 12.4277 13.3259C12.7526 13.1859 13.1015 13.113 13.4531 13.113ZM34.29 13.113C34.6417 13.113 34.9906 13.1859 35.3154 13.3259C35.64 13.4659 35.9351 13.6708 36.1836 13.9294C36.4322 14.1882 36.6291 14.4957 36.7637 14.8337C36.8982 15.1718 36.9678 15.5342 36.9678 15.9001V55.071C36.9678 55.8101 36.6856 56.5191 36.1836 57.0417C35.6815 57.5644 35.0001 57.8582 34.29 57.8582C33.5801 57.8581 32.8995 57.5643 32.3975 57.0417C31.8954 56.5191 31.6133 55.8101 31.6133 55.071V15.9001C31.6132 15.5342 31.6819 15.1718 31.8164 14.8337C31.9509 14.4956 32.1488 14.1882 32.3975 13.9294C32.646 13.6708 32.941 13.4659 33.2656 13.3259C33.5904 13.1859 33.9386 13.113 34.29 13.113ZM55.1279 13.113C55.4795 13.113 55.8275 13.186 56.1523 13.3259C56.4772 13.466 56.7729 13.6707 57.0215 13.9294C57.2701 14.1882 57.467 14.4956 57.6016 14.8337C57.7361 15.1718 57.8057 15.5342 57.8057 15.9001V55.071C57.8057 55.8101 57.5234 56.5191 57.0215 57.0417C56.5194 57.5644 55.838 57.8582 55.1279 57.8582C54.4179 57.8581 53.7374 57.5643 53.2354 57.0417C52.7332 56.5191 52.4512 55.8102 52.4512 55.071V15.9001C52.4511 15.5342 52.5198 15.1718 52.6543 14.8337C52.7888 14.4957 52.9858 14.1882 53.2344 13.9294C53.483 13.6707 53.7787 13.466 54.1035 13.3259C54.4283 13.1859 54.7764 13.113 55.1279 13.113ZM3.03418 23.8181C3.38566 23.8181 3.73385 23.8903 4.05859 24.03C4.38324 24.1697 4.67824 24.3745 4.92676 24.6326C5.17538 24.8909 5.37328 25.1984 5.50781 25.5359C5.64221 25.8732 5.71099 26.2352 5.71094 26.6003V44.3699C5.71094 44.7349 5.64223 45.097 5.50781 45.4343C5.37328 45.7717 5.17532 46.0784 4.92676 46.3367C4.67817 46.5949 4.38338 46.8004 4.05859 46.9402C3.73388 47.0799 3.38565 47.152 3.03418 47.1521C2.68258 47.1521 2.33362 47.08 2.00879 46.9402C1.68408 46.8004 1.38916 46.5949 1.14062 46.3367C0.892109 46.0784 0.695058 45.7717 0.560547 45.4343C0.426064 45.0969 0.356445 44.735 0.356445 44.3699V26.6003C0.356389 26.2351 0.426076 25.8733 0.560547 25.5359C0.695077 25.1984 0.891998 24.8909 1.14062 24.6326C1.38912 24.3745 1.68417 24.1697 2.00879 24.03C2.33365 23.8903 2.68257 23.8181 3.03418 23.8181ZM44.709 23.8181C45.0606 23.8181 45.4095 23.8903 45.7344 24.03C46.059 24.1697 46.3541 24.3745 46.6025 24.6326C46.8512 24.8909 47.0481 25.1984 47.1826 25.5359C47.3171 25.8733 47.3868 26.2352 47.3867 26.6003V44.3699C47.3867 45.1074 47.1045 45.8151 46.6025 46.3367C46.1004 46.8583 45.4191 47.1521 44.709 47.1521C43.999 47.152 43.3184 46.8582 42.8164 46.3367C42.3143 45.8151 42.0322 45.1075 42.0322 44.3699V26.6003C42.0322 26.2352 42.1009 25.8732 42.2354 25.5359C42.3699 25.1984 42.5678 24.8909 42.8164 24.6326C43.0649 24.3745 43.3599 24.1697 43.6846 24.03C44.0093 23.8903 44.3575 23.8181 44.709 23.8181ZM65.5469 23.8181C65.8984 23.8181 66.2465 23.8904 66.5713 24.03C66.8961 24.1698 67.1918 24.3744 67.4404 24.6326C67.6891 24.8909 67.886 25.1984 68.0205 25.5359C68.155 25.8733 68.2247 26.2352 68.2246 26.6003V44.3699C68.2246 45.1074 67.9423 45.8151 67.4404 46.3367C66.9383 46.8583 66.257 47.1521 65.5469 47.1521C64.8369 47.1521 64.1564 46.8582 63.6543 46.3367C63.1522 45.8151 62.8701 45.1075 62.8701 44.3699V26.6003C62.8701 26.2352 62.9388 25.8733 63.0732 25.5359C63.2078 25.1984 63.4047 24.8909 63.6533 24.6326C63.9019 24.3743 64.1976 24.1698 64.5225 24.03C64.8472 23.8903 65.1954 23.8181 65.5469 23.8181ZM75.9658 32.6033C77.4445 32.6033 78.6436 33.8023 78.6436 35.281V35.4158C78.6436 36.8944 77.4445 38.0935 75.9658 38.0935C74.4872 38.0935 73.2881 36.8944 73.2881 35.4158V35.281C73.2881 33.8024 74.4872 32.6033 75.9658 32.6033Z" fill="#FFB904"/>
</svg>
