<svg width="79" height="71" viewBox="0 0 79 71" fill="none" xmlns="http://www.w3.org/2000/svg">
<path d="M23.814 2.01489C24.1585 2.01487 24.4995 2.08456 24.8179 2.21899C25.1364 2.35354 25.4266 2.55042 25.6704 2.79907C25.9141 3.04769 26.1069 3.3434 26.2388 3.66821C26.3706 3.99303 26.439 4.34107 26.439 4.69263V66.2786C26.4389 66.9884 26.1624 67.6691 25.6704 68.1711C25.1782 68.6732 24.5101 68.9553 23.814 68.9553C23.1177 68.9553 22.4498 68.6733 21.9575 68.1711C21.4654 67.6691 21.1891 66.9885 21.189 66.2786V4.69263C21.1889 4.34113 21.2564 3.99299 21.3882 3.66821C21.5201 3.34332 21.7137 3.04772 21.9575 2.79907C22.2013 2.55048 22.4906 2.35352 22.8091 2.21899C23.1276 2.08445 23.4692 2.01484 23.814 2.01489ZM13.356 14.0911C13.7007 14.091 14.0424 14.1603 14.3608 14.2942C14.6794 14.4281 14.9686 14.6248 15.2124 14.8723C15.4562 15.1198 15.6498 15.4132 15.7817 15.7366C15.9136 16.0598 15.9819 16.4062 15.9819 16.7561V54.2161C15.9819 54.9229 15.7047 55.6011 15.2124 56.1008C14.7201 56.6004 14.052 56.8811 13.356 56.8811C12.6601 56.881 11.9927 56.6003 11.5005 56.1008C11.0082 55.6011 10.731 54.9229 10.731 54.2161V16.7561C10.731 16.4062 10.7993 16.0598 10.9312 15.7366C11.0631 15.4132 11.2567 15.1198 11.5005 14.8723C11.7443 14.6248 12.0335 14.4281 12.3521 14.2942C12.6704 14.1604 13.0114 14.0911 13.356 14.0911ZM34.271 14.0911C34.6157 14.091 34.9574 14.1603 35.2759 14.2942C35.5944 14.4281 35.8837 14.6249 36.1274 14.8723C36.3711 15.1198 36.5649 15.4133 36.6968 15.7366C36.8286 16.0598 36.896 16.4063 36.896 16.7561V54.2161C36.896 54.9229 36.6197 55.6011 36.1274 56.1008C35.6351 56.6005 34.9672 56.8811 34.271 56.8811C33.5748 56.8811 32.9068 56.6006 32.4146 56.1008C31.9223 55.6011 31.646 54.9229 31.646 54.2161V16.7561C31.646 16.4063 31.7134 16.0598 31.8452 15.7366C31.9771 15.4133 32.1709 15.1197 32.4146 14.8723C32.6582 14.6249 32.9477 14.4281 33.2661 14.2942C33.5846 14.1603 33.9263 14.091 34.271 14.0911ZM55.186 14.0911C55.5306 14.091 55.8716 14.1604 56.1899 14.2942C56.5085 14.4281 56.7987 14.6248 57.0425 14.8723C57.286 15.1197 57.479 15.4134 57.6108 15.7366C57.7427 16.0598 57.811 16.4062 57.811 16.7561V54.2161C57.811 54.9228 57.5347 55.6011 57.0425 56.1008C56.5502 56.6006 55.8822 56.881 55.186 56.8811C54.4899 56.8811 53.8219 56.6005 53.3296 56.1008C52.8373 55.6011 52.5611 54.9229 52.561 54.2161V16.7561C52.561 16.4063 52.6284 16.0598 52.7603 15.7366C52.8921 15.4133 53.0859 15.1198 53.3296 14.8723C53.5734 14.6248 53.8626 14.4281 54.1812 14.2942C54.4997 14.1603 54.8413 14.091 55.186 14.0911ZM2.89893 24.3284C3.24368 24.3283 3.58529 24.3978 3.90381 24.5315C4.22223 24.6651 4.51166 24.8607 4.75537 25.1077C4.99915 25.3547 5.1928 25.6482 5.32471 25.9709C5.45651 26.2936 5.52397 26.6394 5.52393 26.9885V43.9827C5.5239 44.3318 5.45655 44.6777 5.32471 45.0002C5.19278 45.323 4.99914 45.6165 4.75537 45.8635C4.51167 46.1104 4.22219 46.306 3.90381 46.4397C3.58531 46.5734 3.24366 46.6418 2.89893 46.6418C2.55423 46.6418 2.2125 46.5734 1.89404 46.4397C1.57571 46.306 1.28614 46.1104 1.04248 45.8635C0.798741 45.6166 0.60604 45.3229 0.474121 45.0002C0.342222 44.6776 0.273953 44.3319 0.273926 43.9827V26.9885C0.273876 26.6393 0.342252 26.2936 0.474121 25.9709C0.606005 25.6483 0.79876 25.3546 1.04248 25.1077C1.28614 24.8608 1.5757 24.6651 1.89404 24.5315C2.21252 24.3979 2.55422 24.3283 2.89893 24.3284ZM44.728 24.3284C45.0728 24.3283 45.4144 24.3978 45.7329 24.5315C46.0514 24.6651 46.3407 24.8607 46.5845 25.1077C46.8283 25.3547 47.0219 25.6482 47.1538 25.9709C47.2856 26.2936 47.3541 26.6393 47.354 26.9885V43.9827C47.354 44.688 47.0767 45.3648 46.5845 45.8635C46.0922 46.3622 45.4241 46.6418 44.728 46.6418C44.0321 46.6417 43.3647 46.3621 42.8726 45.8635C42.3803 45.3648 42.1031 44.688 42.103 43.9827V26.9885C42.103 26.6393 42.1714 26.2936 42.3032 25.9709C42.4351 25.6483 42.6279 25.3546 42.8716 25.1077C43.1154 24.8607 43.4056 24.6651 43.7241 24.5315C44.0425 24.3979 44.3835 24.3284 44.728 24.3284ZM65.6431 24.3284C65.9878 24.3283 66.3294 24.3978 66.6479 24.5315C66.9663 24.6651 67.2558 24.8608 67.4995 25.1077C67.7433 25.3547 67.937 25.6482 68.0688 25.9709C68.2006 26.2936 68.2681 26.6394 68.2681 26.9885V43.9827C68.268 44.688 67.9918 45.3647 67.4995 45.8635C67.0072 46.3623 66.3393 46.6418 65.6431 46.6418C64.9469 46.6418 64.2789 46.3623 63.7866 45.8635C63.2944 45.3647 63.0181 44.688 63.0181 43.9827V26.9885C63.018 26.6394 63.0855 26.2936 63.2173 25.9709C63.3492 25.6482 63.5429 25.3547 63.7866 25.1077C64.0303 24.8608 64.3198 24.6651 64.6382 24.5315C64.9567 24.3978 65.2983 24.3283 65.6431 24.3284ZM76.1001 32.7297C77.5499 32.7297 78.7261 33.9049 78.7261 35.3547C78.726 36.8045 77.5499 37.9797 76.1001 37.9797C74.6505 37.9795 73.4752 36.8044 73.4751 35.3547C73.4751 33.905 74.6505 32.7299 76.1001 32.7297Z" fill="#FFB904"/>
</svg>
